<mxfile host="app.diagrams.net" modified="2023-09-28T09:39:04.223Z" agent="Mozilla/5.0 (Windows NT 10.0; Win64; x64) AppleWebKit/537.36 (KHTML, like Gecko) Chrome/117.0.0.0 Safari/537.36 Edg/117.0.2045.43" etag="-d3clNYjOck0etvL8DFd" version="21.7.4" type="github">
  <diagram id="C5RBs43oDa-KdzZeNtuy" name="Page-1">
    <mxGraphModel dx="1926" dy="1026" grid="1" gridSize="10" guides="1" tooltips="1" connect="1" arrows="1" fold="1" page="1" pageScale="1" pageWidth="827" pageHeight="1169" math="0" shadow="0">
      <root>
        <mxCell id="WIyWlLk6GJQsqaUBKTNV-0" />
        <mxCell id="WIyWlLk6GJQsqaUBKTNV-1" parent="WIyWlLk6GJQsqaUBKTNV-0" />
        <mxCell id="Z7KanDH32zbY9CidZ3xN-4" style="edgeStyle=orthogonalEdgeStyle;rounded=0;orthogonalLoop=1;jettySize=auto;html=1;entryX=0.5;entryY=0;entryDx=0;entryDy=0;" edge="1" parent="WIyWlLk6GJQsqaUBKTNV-1" source="Z7KanDH32zbY9CidZ3xN-0" target="Z7KanDH32zbY9CidZ3xN-2">
          <mxGeometry relative="1" as="geometry" />
        </mxCell>
        <mxCell id="Z7KanDH32zbY9CidZ3xN-0" value="Start" style="rounded=1;whiteSpace=wrap;html=1;" vertex="1" parent="WIyWlLk6GJQsqaUBKTNV-1">
          <mxGeometry x="457" y="20" width="66" height="30" as="geometry" />
        </mxCell>
        <mxCell id="Z7KanDH32zbY9CidZ3xN-6" style="edgeStyle=orthogonalEdgeStyle;rounded=0;orthogonalLoop=1;jettySize=auto;html=1;" edge="1" parent="WIyWlLk6GJQsqaUBKTNV-1" source="Z7KanDH32zbY9CidZ3xN-2" target="Z7KanDH32zbY9CidZ3xN-5">
          <mxGeometry relative="1" as="geometry" />
        </mxCell>
        <mxCell id="Z7KanDH32zbY9CidZ3xN-2" value="Bangun Tidur Pagi" style="rounded=0;whiteSpace=wrap;html=1;" vertex="1" parent="WIyWlLk6GJQsqaUBKTNV-1">
          <mxGeometry x="447" y="80" width="86" height="40" as="geometry" />
        </mxCell>
        <mxCell id="Z7KanDH32zbY9CidZ3xN-8" style="edgeStyle=orthogonalEdgeStyle;rounded=0;orthogonalLoop=1;jettySize=auto;html=1;entryX=0;entryY=0.5;entryDx=0;entryDy=0;" edge="1" parent="WIyWlLk6GJQsqaUBKTNV-1" source="Z7KanDH32zbY9CidZ3xN-5" target="Z7KanDH32zbY9CidZ3xN-7">
          <mxGeometry relative="1" as="geometry" />
        </mxCell>
        <mxCell id="Z7KanDH32zbY9CidZ3xN-9" value="&lt;font style=&quot;font-size: 7px;&quot;&gt;Lanjut tidur&lt;/font&gt;" style="edgeLabel;html=1;align=center;verticalAlign=middle;resizable=0;points=[];" vertex="1" connectable="0" parent="Z7KanDH32zbY9CidZ3xN-8">
          <mxGeometry x="-0.1908" relative="1" as="geometry">
            <mxPoint as="offset" />
          </mxGeometry>
        </mxCell>
        <mxCell id="Z7KanDH32zbY9CidZ3xN-14" style="edgeStyle=orthogonalEdgeStyle;rounded=0;orthogonalLoop=1;jettySize=auto;html=1;entryX=0.5;entryY=0;entryDx=0;entryDy=0;" edge="1" parent="WIyWlLk6GJQsqaUBKTNV-1" source="Z7KanDH32zbY9CidZ3xN-5" target="Z7KanDH32zbY9CidZ3xN-13">
          <mxGeometry relative="1" as="geometry" />
        </mxCell>
        <mxCell id="Z7KanDH32zbY9CidZ3xN-17" value="&lt;font style=&quot;font-size: 7px;&quot;&gt;Keluar beraktivitas&lt;/font&gt;" style="edgeLabel;html=1;align=center;verticalAlign=middle;resizable=0;points=[];" vertex="1" connectable="0" parent="Z7KanDH32zbY9CidZ3xN-14">
          <mxGeometry x="-0.1305" relative="1" as="geometry">
            <mxPoint as="offset" />
          </mxGeometry>
        </mxCell>
        <mxCell id="Z7KanDH32zbY9CidZ3xN-5" value="&lt;p style=&quot;line-height: 80%;&quot;&gt;&lt;font style=&quot;font-size: 8px;&quot;&gt;Keluar Beraktivitas&lt;br&gt;atau Lanjut Tidur?&lt;/font&gt;&lt;/p&gt;" style="rhombus;whiteSpace=wrap;html=1;" vertex="1" parent="WIyWlLk6GJQsqaUBKTNV-1">
          <mxGeometry x="443.5" y="160" width="93" height="90" as="geometry" />
        </mxCell>
        <mxCell id="Z7KanDH32zbY9CidZ3xN-55" style="edgeStyle=orthogonalEdgeStyle;rounded=0;orthogonalLoop=1;jettySize=auto;html=1;entryX=0.5;entryY=0;entryDx=0;entryDy=0;" edge="1" parent="WIyWlLk6GJQsqaUBKTNV-1" source="Z7KanDH32zbY9CidZ3xN-7" target="Z7KanDH32zbY9CidZ3xN-54">
          <mxGeometry relative="1" as="geometry">
            <Array as="points">
              <mxPoint x="749" y="205" />
            </Array>
          </mxGeometry>
        </mxCell>
        <mxCell id="Z7KanDH32zbY9CidZ3xN-7" value="Malah terlambat bangun" style="shape=parallelogram;perimeter=parallelogramPerimeter;whiteSpace=wrap;html=1;fixedSize=1;" vertex="1" parent="WIyWlLk6GJQsqaUBKTNV-1">
          <mxGeometry x="596" y="175" width="120" height="60" as="geometry" />
        </mxCell>
        <mxCell id="Z7KanDH32zbY9CidZ3xN-16" style="edgeStyle=orthogonalEdgeStyle;rounded=0;orthogonalLoop=1;jettySize=auto;html=1;entryX=0.5;entryY=0;entryDx=0;entryDy=0;" edge="1" parent="WIyWlLk6GJQsqaUBKTNV-1" source="Z7KanDH32zbY9CidZ3xN-13" target="Z7KanDH32zbY9CidZ3xN-15">
          <mxGeometry relative="1" as="geometry" />
        </mxCell>
        <mxCell id="Z7KanDH32zbY9CidZ3xN-13" value="&lt;font style=&quot;font-size: 9px;&quot;&gt;Setelah itu, bingung&lt;br&gt;mau ngapain&lt;/font&gt;" style="shape=parallelogram;perimeter=parallelogramPerimeter;whiteSpace=wrap;html=1;fixedSize=1;" vertex="1" parent="WIyWlLk6GJQsqaUBKTNV-1">
          <mxGeometry x="430" y="300" width="120" height="60" as="geometry" />
        </mxCell>
        <mxCell id="Z7KanDH32zbY9CidZ3xN-19" style="edgeStyle=orthogonalEdgeStyle;rounded=0;orthogonalLoop=1;jettySize=auto;html=1;entryX=0;entryY=0.5;entryDx=0;entryDy=0;" edge="1" parent="WIyWlLk6GJQsqaUBKTNV-1" source="Z7KanDH32zbY9CidZ3xN-15" target="Z7KanDH32zbY9CidZ3xN-18">
          <mxGeometry relative="1" as="geometry" />
        </mxCell>
        <mxCell id="Z7KanDH32zbY9CidZ3xN-41" value="&lt;font style=&quot;font-size: 7px;&quot;&gt;Mendaki&lt;/font&gt;" style="edgeLabel;html=1;align=center;verticalAlign=middle;resizable=0;points=[];" vertex="1" connectable="0" parent="Z7KanDH32zbY9CidZ3xN-19">
          <mxGeometry x="-0.1658" y="1" relative="1" as="geometry">
            <mxPoint as="offset" />
          </mxGeometry>
        </mxCell>
        <mxCell id="Z7KanDH32zbY9CidZ3xN-21" style="edgeStyle=orthogonalEdgeStyle;rounded=0;orthogonalLoop=1;jettySize=auto;html=1;" edge="1" parent="WIyWlLk6GJQsqaUBKTNV-1" source="Z7KanDH32zbY9CidZ3xN-15" target="Z7KanDH32zbY9CidZ3xN-20">
          <mxGeometry relative="1" as="geometry" />
        </mxCell>
        <mxCell id="Z7KanDH32zbY9CidZ3xN-43" value="&lt;font style=&quot;font-size: 7px;&quot;&gt;Kuliah&lt;/font&gt;" style="edgeLabel;html=1;align=center;verticalAlign=middle;resizable=0;points=[];" vertex="1" connectable="0" parent="Z7KanDH32zbY9CidZ3xN-21">
          <mxGeometry x="-0.4394" y="-2" relative="1" as="geometry">
            <mxPoint as="offset" />
          </mxGeometry>
        </mxCell>
        <mxCell id="Z7KanDH32zbY9CidZ3xN-15" value="&lt;font style=&quot;font-size: 11px;&quot;&gt;Pergi mendaki / Pergi kuliah?&lt;/font&gt;" style="rhombus;whiteSpace=wrap;html=1;" vertex="1" parent="WIyWlLk6GJQsqaUBKTNV-1">
          <mxGeometry x="438" y="400" width="104" height="100" as="geometry" />
        </mxCell>
        <mxCell id="Z7KanDH32zbY9CidZ3xN-57" style="edgeStyle=orthogonalEdgeStyle;rounded=0;orthogonalLoop=1;jettySize=auto;html=1;exitX=1;exitY=0.5;exitDx=0;exitDy=0;entryX=0.5;entryY=0;entryDx=0;entryDy=0;" edge="1" parent="WIyWlLk6GJQsqaUBKTNV-1" source="Z7KanDH32zbY9CidZ3xN-18" target="Z7KanDH32zbY9CidZ3xN-54">
          <mxGeometry relative="1" as="geometry">
            <Array as="points">
              <mxPoint x="750" y="450" />
              <mxPoint x="750" y="658" />
              <mxPoint x="749" y="658" />
            </Array>
          </mxGeometry>
        </mxCell>
        <mxCell id="Z7KanDH32zbY9CidZ3xN-18" value="Tersesat dan diterkam harimau" style="shape=parallelogram;perimeter=parallelogramPerimeter;whiteSpace=wrap;html=1;fixedSize=1;" vertex="1" parent="WIyWlLk6GJQsqaUBKTNV-1">
          <mxGeometry x="596" y="420" width="120" height="60" as="geometry" />
        </mxCell>
        <mxCell id="Z7KanDH32zbY9CidZ3xN-24" style="edgeStyle=orthogonalEdgeStyle;rounded=0;orthogonalLoop=1;jettySize=auto;html=1;" edge="1" parent="WIyWlLk6GJQsqaUBKTNV-1" source="Z7KanDH32zbY9CidZ3xN-20" target="Z7KanDH32zbY9CidZ3xN-23">
          <mxGeometry relative="1" as="geometry" />
        </mxCell>
        <mxCell id="Z7KanDH32zbY9CidZ3xN-20" value="Pergi kuliah, tapi kamu sudah terlambat" style="shape=parallelogram;perimeter=parallelogramPerimeter;whiteSpace=wrap;html=1;fixedSize=1;" vertex="1" parent="WIyWlLk6GJQsqaUBKTNV-1">
          <mxGeometry x="430" y="555" width="120" height="60" as="geometry" />
        </mxCell>
        <mxCell id="Z7KanDH32zbY9CidZ3xN-39" style="edgeStyle=orthogonalEdgeStyle;rounded=0;orthogonalLoop=1;jettySize=auto;html=1;entryX=0;entryY=0.5;entryDx=0;entryDy=0;" edge="1" parent="WIyWlLk6GJQsqaUBKTNV-1" source="Z7KanDH32zbY9CidZ3xN-23" target="Z7KanDH32zbY9CidZ3xN-38">
          <mxGeometry relative="1" as="geometry" />
        </mxCell>
        <mxCell id="Z7KanDH32zbY9CidZ3xN-40" value="&lt;font style=&quot;font-size: 7px;&quot;&gt;Lanjut&lt;/font&gt;" style="edgeLabel;html=1;align=center;verticalAlign=middle;resizable=0;points=[];" vertex="1" connectable="0" parent="Z7KanDH32zbY9CidZ3xN-39">
          <mxGeometry x="-0.0427" y="3" relative="1" as="geometry">
            <mxPoint as="offset" />
          </mxGeometry>
        </mxCell>
        <mxCell id="Z7KanDH32zbY9CidZ3xN-46" style="edgeStyle=orthogonalEdgeStyle;rounded=0;orthogonalLoop=1;jettySize=auto;html=1;entryX=1;entryY=0.5;entryDx=0;entryDy=0;" edge="1" parent="WIyWlLk6GJQsqaUBKTNV-1" source="Z7KanDH32zbY9CidZ3xN-23" target="Z7KanDH32zbY9CidZ3xN-44">
          <mxGeometry relative="1" as="geometry" />
        </mxCell>
        <mxCell id="Z7KanDH32zbY9CidZ3xN-63" value="&lt;font style=&quot;font-size: 7px;&quot;&gt;Pulang&lt;/font&gt;" style="edgeLabel;html=1;align=center;verticalAlign=middle;resizable=0;points=[];" vertex="1" connectable="0" parent="Z7KanDH32zbY9CidZ3xN-46">
          <mxGeometry x="-0.2257" y="1" relative="1" as="geometry">
            <mxPoint as="offset" />
          </mxGeometry>
        </mxCell>
        <mxCell id="Z7KanDH32zbY9CidZ3xN-23" value="&lt;font style=&quot;font-size: 11px;&quot;&gt;Lanjut masuk / Pulang saja?&lt;/font&gt;" style="rhombus;whiteSpace=wrap;html=1;" vertex="1" parent="WIyWlLk6GJQsqaUBKTNV-1">
          <mxGeometry x="438" y="670" width="104" height="100" as="geometry" />
        </mxCell>
        <mxCell id="Z7KanDH32zbY9CidZ3xN-58" style="edgeStyle=orthogonalEdgeStyle;rounded=0;orthogonalLoop=1;jettySize=auto;html=1;entryX=0.5;entryY=0;entryDx=0;entryDy=0;" edge="1" parent="WIyWlLk6GJQsqaUBKTNV-1" source="Z7KanDH32zbY9CidZ3xN-38" target="Z7KanDH32zbY9CidZ3xN-54">
          <mxGeometry relative="1" as="geometry" />
        </mxCell>
        <mxCell id="Z7KanDH32zbY9CidZ3xN-38" value="&lt;p style=&quot;line-height: 80%;&quot;&gt;&lt;font style=&quot;font-size: 9px;&quot;&gt;Kamu terlambat, dan dikeluarkan dari kampus&lt;/font&gt;&lt;/p&gt;" style="shape=parallelogram;perimeter=parallelogramPerimeter;whiteSpace=wrap;html=1;fixedSize=1;" vertex="1" parent="WIyWlLk6GJQsqaUBKTNV-1">
          <mxGeometry x="586" y="690" width="120" height="60" as="geometry" />
        </mxCell>
        <mxCell id="Z7KanDH32zbY9CidZ3xN-47" value="" style="edgeStyle=orthogonalEdgeStyle;rounded=0;orthogonalLoop=1;jettySize=auto;html=1;" edge="1" parent="WIyWlLk6GJQsqaUBKTNV-1" source="Z7KanDH32zbY9CidZ3xN-44" target="Z7KanDH32zbY9CidZ3xN-45">
          <mxGeometry relative="1" as="geometry" />
        </mxCell>
        <mxCell id="Z7KanDH32zbY9CidZ3xN-44" value="Setelah itu, didepan ada polisi" style="shape=parallelogram;perimeter=parallelogramPerimeter;whiteSpace=wrap;html=1;fixedSize=1;" vertex="1" parent="WIyWlLk6GJQsqaUBKTNV-1">
          <mxGeometry x="270" y="690" width="120" height="60" as="geometry" />
        </mxCell>
        <mxCell id="Z7KanDH32zbY9CidZ3xN-49" value="" style="edgeStyle=orthogonalEdgeStyle;rounded=0;orthogonalLoop=1;jettySize=auto;html=1;" edge="1" parent="WIyWlLk6GJQsqaUBKTNV-1" source="Z7KanDH32zbY9CidZ3xN-45" target="Z7KanDH32zbY9CidZ3xN-48">
          <mxGeometry relative="1" as="geometry" />
        </mxCell>
        <mxCell id="Z7KanDH32zbY9CidZ3xN-50" value="&lt;font style=&quot;font-size: 7px;&quot;&gt;Nekat maju&lt;/font&gt;" style="edgeLabel;html=1;align=center;verticalAlign=middle;resizable=0;points=[];" vertex="1" connectable="0" parent="Z7KanDH32zbY9CidZ3xN-49">
          <mxGeometry x="-0.4835" y="-3" relative="1" as="geometry">
            <mxPoint x="3" as="offset" />
          </mxGeometry>
        </mxCell>
        <mxCell id="Z7KanDH32zbY9CidZ3xN-52" value="" style="edgeStyle=orthogonalEdgeStyle;rounded=0;orthogonalLoop=1;jettySize=auto;html=1;" edge="1" parent="WIyWlLk6GJQsqaUBKTNV-1" source="Z7KanDH32zbY9CidZ3xN-45" target="Z7KanDH32zbY9CidZ3xN-51">
          <mxGeometry relative="1" as="geometry" />
        </mxCell>
        <mxCell id="Z7KanDH32zbY9CidZ3xN-62" value="&lt;font style=&quot;font-size: 7px;&quot;&gt;Putar Balik&lt;/font&gt;" style="edgeLabel;html=1;align=center;verticalAlign=middle;resizable=0;points=[];" vertex="1" connectable="0" parent="Z7KanDH32zbY9CidZ3xN-52">
          <mxGeometry x="-0.0241" y="1" relative="1" as="geometry">
            <mxPoint y="-1" as="offset" />
          </mxGeometry>
        </mxCell>
        <mxCell id="Z7KanDH32zbY9CidZ3xN-45" value="&lt;span style=&quot;font-size: 11px;&quot;&gt;Nekat Maju /&lt;br&gt;Putar Balik?&lt;/span&gt;" style="rhombus;whiteSpace=wrap;html=1;" vertex="1" parent="WIyWlLk6GJQsqaUBKTNV-1">
          <mxGeometry x="100" y="670" width="104" height="100" as="geometry" />
        </mxCell>
        <mxCell id="Z7KanDH32zbY9CidZ3xN-59" style="edgeStyle=orthogonalEdgeStyle;rounded=0;orthogonalLoop=1;jettySize=auto;html=1;entryX=0;entryY=0.5;entryDx=0;entryDy=0;" edge="1" parent="WIyWlLk6GJQsqaUBKTNV-1" source="Z7KanDH32zbY9CidZ3xN-48" target="Z7KanDH32zbY9CidZ3xN-54">
          <mxGeometry relative="1" as="geometry" />
        </mxCell>
        <mxCell id="Z7KanDH32zbY9CidZ3xN-48" value="Kamu kena tilang" style="shape=parallelogram;perimeter=parallelogramPerimeter;whiteSpace=wrap;html=1;fixedSize=1;" vertex="1" parent="WIyWlLk6GJQsqaUBKTNV-1">
          <mxGeometry x="92" y="820" width="120" height="60" as="geometry" />
        </mxCell>
        <mxCell id="Z7KanDH32zbY9CidZ3xN-61" value="" style="edgeStyle=orthogonalEdgeStyle;rounded=0;orthogonalLoop=1;jettySize=auto;html=1;" edge="1" parent="WIyWlLk6GJQsqaUBKTNV-1" source="Z7KanDH32zbY9CidZ3xN-51" target="Z7KanDH32zbY9CidZ3xN-60">
          <mxGeometry relative="1" as="geometry" />
        </mxCell>
        <mxCell id="Z7KanDH32zbY9CidZ3xN-51" value="&lt;font style=&quot;font-size: 9px;&quot;&gt;Kebetulan dosen tidak&lt;br&gt;ada, kamu berhasil&lt;br&gt;masuk kelas&lt;/font&gt;" style="shape=parallelogram;perimeter=parallelogramPerimeter;whiteSpace=wrap;html=1;fixedSize=1;" vertex="1" parent="WIyWlLk6GJQsqaUBKTNV-1">
          <mxGeometry x="92" y="555" width="120" height="60" as="geometry" />
        </mxCell>
        <mxCell id="Z7KanDH32zbY9CidZ3xN-54" value="Bad Ending" style="rounded=1;whiteSpace=wrap;html=1;" vertex="1" parent="WIyWlLk6GJQsqaUBKTNV-1">
          <mxGeometry x="716" y="835" width="66" height="30" as="geometry" />
        </mxCell>
        <mxCell id="Z7KanDH32zbY9CidZ3xN-60" value="Neutral Ending" style="rounded=1;whiteSpace=wrap;html=1;" vertex="1" parent="WIyWlLk6GJQsqaUBKTNV-1">
          <mxGeometry x="119" y="450" width="66" height="30" as="geometry" />
        </mxCell>
      </root>
    </mxGraphModel>
  </diagram>
</mxfile>
